<svg width="23" height="23" viewBox="0 0 23 23" fill="none" xmlns="http://www.w3.org/2000/svg">
<path d="M15.1962 8.29838C15.0481 8.38337 14.898 8.4645 14.754 8.55528C11.7305 10.4579 8.70105 12.3547 5.68959 14.2766C5.28539 14.5335 4.96924 14.5374 4.55504 14.3481C3.43249 13.8362 2.29594 13.3533 1.16139 12.8685C-0.203267 12.2871 -0.401363 10.9582 0.759199 10.0523C4.14884 7.40213 7.87065 5.26582 11.8046 3.46366C14.74 2.11929 17.7594 0.983524 20.8709 0.0795492C21.9935 -0.246886 23.006 0.463932 23 1.61515C22.994 2.5423 22.958 3.47139 22.8579 4.39275C22.5758 6.99844 22.3076 9.60606 21.9335 12.2002C21.5833 14.6339 21.1071 17.0523 20.6808 19.4745C20.6348 19.741 20.5648 20.0076 20.4808 20.2664C20.1906 21.1569 19.1821 21.605 18.2697 21.1858C16.7149 20.4711 15.1862 19.7062 13.6454 18.9626C13.0291 18.6651 13.0311 18.669 12.697 19.2349C12.1307 20.193 11.5744 21.1549 10.9922 22.1053C10.5059 22.8991 9.77557 23.1695 8.97718 22.8972C8.34287 22.6809 7.9887 22.2308 7.9787 21.6011C7.95068 19.9863 7.94468 18.3715 7.9847 16.7567C7.9907 16.4825 8.22482 16.1753 8.43092 15.9474C10.596 13.5484 12.777 11.1629 14.9521 8.77162C15.0661 8.64607 15.1682 8.51279 15.2762 8.38337C15.2502 8.3544 15.2242 8.32349 15.1962 8.29452V8.29838Z" fill="white"/>
</svg>
